<svg width="512" height="512" viewBox="0 0 512 512" fill="none" xmlns="http://www.w3.org/2000/svg">
  <rect width="512" height="512" rx="112" fill="#091A58"/>
  <rect x="24" y="24" width="464" height="464" rx="96" stroke="rgba(255,255,255,0.16)" stroke-width="2"/>
  <path d="M86 114C126 80 182 64 264 64C304 64 346 71 395 89V150C351 128 312 118 276 118C228 118 196 130 174 156C157 175 148 202 148 236H328V290H148V310C148 342 157 367 176 386C199 409 234 420 284 420C324 420 362 412 398 397V452C355 468 314 476 264 476C185 476 128 456 90 416C55 378 36 326 36 260C36 195 53 146 86 114Z" fill="url(#paint0_linear_1_2)"/>
  <path d="M351 108C401 108 440 123 468 154C493 181 506 216 506 259C506 312 490 354 459 386C428 418 387 434 336 434C286 434 245 417 214 383C184 349 168 307 168 257C168 210 183 171 213 141C244 119 290 108 351 108ZM348 162C314 162 287 171 268 190C249 209 240 233 240 264C240 300 249 329 267 350C286 371 313 382 350 382C385 382 412 372 430 350C448 329 457 300 457 265C457 233 448 208 429 189C411 171 384 162 348 162Z" fill="url(#paint1_linear_1_2)" fill-opacity="0.92"/>
  <circle cx="404" cy="125" r="38" fill="#BAFF29"/>
  <path d="M444 281C444 344.513 392.513 396 329 396C265.487 396 214 344.513 214 281C214 217.487 265.487 166 329 166C392.513 166 444 217.487 444 281ZM277.264 281C277.264 309.571 300.429 332.736 329 332.736C357.571 332.736 380.736 309.571 380.736 281C380.736 252.429 357.571 229.264 329 229.264C300.429 229.264 277.264 252.429 277.264 281Z" fill="#F5F1E8"/>
  <path d="M146 90C205 83 252 80 286 80C351 80 403 93 443 119" stroke="#7B35FF" stroke-width="18" stroke-linecap="round"/>
  <path d="M97 462H212" stroke="#F83B31" stroke-width="22" stroke-linecap="round"/>
  <defs>
    <linearGradient id="paint0_linear_1_2" x1="58" y1="90" x2="414" y2="456" gradientUnits="userSpaceOnUse">
      <stop stop-color="#7B35FF"/>
      <stop offset="0.33" stop-color="#2446FF"/>
      <stop offset="0.66" stop-color="#00C787"/>
      <stop offset="1" stop-color="#BAFF29"/>
    </linearGradient>
    <linearGradient id="paint1_linear_1_2" x1="178" y1="108" x2="506" y2="434" gradientUnits="userSpaceOnUse">
      <stop stop-color="#FF4338"/>
      <stop offset="0.4" stop-color="#C6152E"/>
      <stop offset="1" stop-color="#6D133A"/>
    </linearGradient>
  </defs>
</svg>
