<svg xmlns="http://www.w3.org/2000/svg" viewBox="0 0 420 420" role="img" aria-label="Penca Salados 2026">
  <defs>
    <linearGradient id="g" x1="0" y1="0" x2="1" y2="1">
      <stop offset="0" stop-color="#00A6A6"/>
      <stop offset="0.38" stop-color="#23408E"/>
      <stop offset="0.72" stop-color="#E63E30"/>
      <stop offset="1" stop-color="#F5A623"/>
    </linearGradient>
    <filter id="shadow" x="-20%" y="-20%" width="140%" height="140%">
      <feDropShadow dx="0" dy="18" stdDeviation="18" flood-color="#101124" flood-opacity=".22"/>
    </filter>
  </defs>
  <rect width="420" height="420" rx="96" fill="#FAF7EF"/>
  <circle cx="210" cy="210" r="150" fill="url(#g)" filter="url(#shadow)"/>
  <circle cx="210" cy="210" r="112" fill="#FAF7EF" opacity=".96"/>
  <path d="M136 216c20-62 62-96 119-102 25-3 49 1 73 12-12 12-27 20-47 24-45 10-77 30-96 65-13 24-29 37-49 41 0-12 0-25 0-40z" fill="#23408E"/>
  <path d="M135 273c35 17 72 22 111 14 39-8 67-28 85-59 3 63-43 116-107 122-42 4-73-14-89-77z" fill="#00A6A6"/>
  <path d="M116 155c38-50 89-75 153-74 24 1 48 6 72 16-19-34-55-55-102-61-57-8-105 12-143 60-13 16-20 36-21 59 13-6 27-6 41 0z" fill="#E63E30" opacity=".95"/>
  <text x="210" y="222" text-anchor="middle" font-family="Arial, sans-serif" font-size="72" font-weight="900" fill="#111827">S</text>
  <text x="210" y="278" text-anchor="middle" font-family="Arial, sans-serif" font-size="38" font-weight="900" fill="#111827">2026</text>
</svg>
